<svg width="33" height="32" viewBox="0 0 33 32" fill="none" xmlns="http://www.w3.org/2000/svg">
<rect x="0.116211" width="32" height="32" rx="4" fill="#D0D5D9"/>
<path d="M7.77186 25.684C6.90786 25.684 6.09186 25.524 5.32386 25.204C4.55586 24.9 3.93186 24.428 3.45186 23.788C2.98786 23.148 2.75586 22.348 2.75586 21.388C2.75586 20.556 2.91586 19.908 3.23586 19.444C3.57186 18.98 3.97986 18.652 4.45986 18.46C4.93986 18.268 5.39586 18.172 5.82786 18.172C5.39586 18.636 5.06786 19.148 4.84386 19.708C4.61986 20.268 4.50786 20.828 4.50786 21.388C4.50786 21.98 4.63586 22.532 4.89186 23.044C5.16386 23.556 5.57186 23.964 6.11586 24.268C6.65986 24.588 7.34786 24.748 8.17986 24.748C8.89986 24.748 9.60386 24.612 10.2919 24.34C10.9799 24.084 11.5399 23.7 11.9719 23.188C12.4199 22.66 12.6439 22.012 12.6439 21.244C12.6439 20.556 12.4679 19.964 12.1159 19.468C11.7639 18.972 11.3079 18.532 10.7479 18.148C10.2039 17.764 9.61986 17.396 8.99586 17.044C8.37186 16.692 7.77986 16.324 7.21986 15.94C6.67586 15.54 6.22786 15.084 5.87586 14.572C5.52386 14.06 5.34786 13.444 5.34786 12.724C5.34786 12.052 5.50786 11.348 5.82786 10.612C6.14786 9.87604 6.60386 9.18004 7.19586 8.52404C7.80386 7.86804 8.52386 7.34004 9.35586 6.94004C10.2039 6.52404 11.1479 6.31604 12.1879 6.31604C13.1319 6.31604 13.7879 6.54804 14.1559 7.01204C14.5239 7.46004 14.7079 8.02804 14.7079 8.71604C14.7079 9.29204 14.6039 9.91604 14.3959 10.588C14.2039 11.244 13.9639 11.876 13.6759 12.484C13.3879 13.076 13.1159 13.58 12.8599 13.996C12.5719 13.932 12.3639 13.812 12.2359 13.636C12.1239 13.444 12.0679 13.22 12.0679 12.964C12.0679 12.628 12.1399 12.244 12.2839 11.812C12.4279 11.38 12.5879 10.932 12.7639 10.468C12.9559 10.004 13.1239 9.55604 13.2679 9.12404C13.4119 8.67604 13.4839 8.27604 13.4839 7.92404C13.4839 7.60404 13.3879 7.35604 13.1959 7.18004C13.0039 6.98804 12.6519 6.89204 12.1399 6.89204C11.3879 6.89204 10.6919 7.06804 10.0519 7.42004C9.41186 7.77204 8.85186 8.22804 8.37186 8.78804C7.89186 9.33204 7.51586 9.90804 7.24386 10.516C6.98786 11.124 6.85986 11.676 6.85986 12.172C6.85986 12.764 7.02786 13.276 7.36386 13.708C7.71586 14.124 8.16386 14.508 8.70786 14.86C9.25186 15.196 9.82786 15.54 10.4359 15.892C11.0599 16.228 11.6439 16.604 12.1879 17.02C12.7319 17.436 13.1719 17.932 13.5079 18.508C13.8599 19.068 14.0359 19.756 14.0359 20.572C14.0359 21.404 13.8519 22.14 13.4839 22.78C13.1159 23.404 12.6199 23.932 11.9959 24.364C11.3879 24.796 10.7159 25.124 9.97986 25.348C9.24386 25.572 8.50786 25.684 7.77186 25.684Z" fill="black"/>
<path d="M17.5035 25.684C17.1035 25.684 16.7275 25.572 16.3755 25.348C16.0235 25.124 15.8475 24.836 15.8475 24.484C15.8475 24.308 15.8875 24.092 15.9675 23.836C16.0475 23.596 16.1195 23.372 16.1835 23.164C16.6955 21.596 17.1755 20.132 17.6235 18.772C18.0715 17.412 18.5195 16.092 18.9675 14.812C19.4155 13.532 19.8875 12.252 20.3835 10.972C20.8955 9.69204 21.4635 8.35604 22.0875 6.96404C21.4795 7.07604 20.9355 7.24404 20.4555 7.46804C19.9915 7.67604 19.6155 7.86804 19.3275 8.04404C19.0395 8.20404 18.8475 8.28404 18.7515 8.28404C18.6875 8.28404 18.5915 8.25204 18.4635 8.18804C18.3515 8.10804 18.2475 8.02004 18.1515 7.92404C18.0555 7.81204 18.0075 7.71604 18.0075 7.63604C18.4235 7.46004 18.9115 7.26804 19.4715 7.06004C20.0475 6.85204 20.6635 6.67604 21.3195 6.53204C21.9755 6.38804 22.6395 6.31604 23.3115 6.31604C24.0155 6.31604 24.7275 6.41204 25.4475 6.60404C26.1835 6.79604 26.8555 7.09204 27.4635 7.49204C28.0715 7.87604 28.5595 8.35604 28.9275 8.93204C29.2955 9.50804 29.4795 10.18 29.4795 10.948C29.4795 11.78 29.2955 12.5 28.9275 13.108C28.5595 13.7 28.0715 14.204 27.4635 14.62C26.8555 15.02 26.1995 15.348 25.4955 15.604C24.7915 15.844 24.0875 16.036 23.3835 16.18C22.6955 16.308 22.0795 16.396 21.5355 16.444C20.9915 16.476 20.5915 16.492 20.3355 16.492H20.0955C19.6155 18.14 19.1515 19.764 18.7035 21.364C18.2715 22.964 17.8715 24.404 17.5035 25.684ZM20.1915 16.108C21.0715 16.06 21.9595 15.916 22.8555 15.676C23.7675 15.436 24.5995 15.092 25.3515 14.644C26.1035 14.18 26.7115 13.612 27.1755 12.94C27.6395 12.252 27.8715 11.452 27.8715 10.54C27.8715 9.67604 27.6635 8.97204 27.2475 8.42804C26.8475 7.88404 26.3115 7.48404 25.6395 7.22804C24.9835 6.95604 24.2795 6.82004 23.5275 6.82004C22.9355 7.98804 22.3595 9.38804 21.7995 11.02C21.2395 12.652 20.7035 14.348 20.1915 16.108Z" fill="black"/>
</svg>
